<?xml version="1.0" encoding="utf-8"?>
<!-- Generator: Adobe Illustrator 19.0.1, SVG Export Plug-In . SVG Version: 6.00 Build 0)  -->
<svg version="1.1" id="Layer_1" xmlns="http://www.w3.org/2000/svg" xmlns:xlink="http://www.w3.org/1999/xlink" x="0px" y="0px"
	 viewBox="0 0 156.1 134" style="enable-background:new 0 0 156.1 134;" xml:space="preserve">
<style type="text/css">
	.st0{fill:#DA7554;}
</style>
<path class="st0" d="M119.5,20.8c-1.5,0-3,0.1-4.6,0.3C107.1,7.9,94.2,0,80.1,0C65.8,0,52.8,8.1,45.1,21.8c-2.8-0.7-5.6-1-8.4-1
	C16.5,20.8,0,37.3,0,57.5c0,20.2,16.5,36.7,36.7,36.7c0.4,0,0.8,0,1.3,0v37.5c0,1.3,1.1,2.4,2.4,2.4h79.1c1.3,0,2.4-1.1,2.4-2.4
	V94.1c13.8-0.9,25.9-9.4,31.4-22.3c1.9-4.5,2.9-9.3,2.9-14.3C156.1,37.3,139.7,20.8,119.5,20.8z M117.1,129.2H42.7V94.4
	c5.6-0.8,10.8-2.8,15.6-5.9c2.8,1.7,5.8,3.1,8.9,4.2c4,1.6,8.4,2.6,13,2.6c4.8,0,9.4-1,13.5-2.8c2.1-0.7,4.2-1.6,6.1-2.7
	c5.3,3,11.2,4.7,17.2,5L117.1,129.2L117.1,129.2z M148.8,69.9c-4.8,11.4-16.2,19.5-29.4,19.5l0,0c-5.4,0-10.6-1.4-15.3-3.9
	c4.8-4.7,8.1-10.8,9.3-17.7c0.2-1.3-0.6-2.5-1.9-2.8c-1.3-0.2-2.5,0.6-2.8,1.9c-1.1,6.3-4.3,11.8-8.8,15.9l-0.1,0l-1.7,1.1
	c-5.5,3.6-11.8,5.5-18.1,5.5C73,89.4,66,87,60,82.5l-0.3-0.2c-4.2-4-7.1-9.3-8.2-15.3c-0.2-1.3-1.5-2.2-2.8-1.9
	c-1.3,0.2-2.2,1.5-1.9,2.8c1.1,6.1,3.8,11.6,7.8,16c-4.3,3-9.2,4.8-14.3,5.3h0c-0.5,0.1-1.1,0.1-1.6,0.1c-0.7,0.1-1.4,0.1-2.1,0.1
	c-17.6,0-31.9-14.3-31.9-31.9c0-17.6,14.3-31.9,31.9-31.9c2.8,0,5.7,0.4,8.5,1.2l2.3,0.6l1.1-2.1C55.4,12.4,67.2,4.8,80.2,4.8
	c12.7,0,24.3,7.4,31.1,19.8l1,1.8l2.1-0.3c1.9-0.3,3.5-0.4,5.1-0.4c17.6,0,31.9,14.3,31.9,31.9C151.4,61.9,150.5,66.1,148.8,69.9z"
	/>
</svg>
