<?xml version="1.0" encoding="utf-8"?>
<!-- Generator: Adobe Illustrator 19.0.1, SVG Export Plug-In . SVG Version: 6.00 Build 0)  -->
<svg version="1.1" id="Layer_1" xmlns="http://www.w3.org/2000/svg" xmlns:xlink="http://www.w3.org/1999/xlink" x="0px" y="0px"
	 viewBox="0 0 129.9 140" style="enable-background:new 0 0 129.9 140;" xml:space="preserve">
<style type="text/css">
	.st0{fill:#DA7554;}
</style>
<g>
	<path class="st0" d="M123.9,140H5.8c-3.3,0-5.8-2.6-5.8-5.8V16.1c0-3.3,2.6-5.8,5.8-5.8h118.3c3.3,0,5.8,2.6,5.8,5.8v118.3
		C129.7,137.4,127.2,140,123.9,140z M5.8,13.7c-1.4,0-2.4,1-2.4,2.4v118.3c0,1.4,1,2.4,2.4,2.4h118.3c1.4,0,2.4-1,2.4-2.4V16.1
		c0-1.4-1-2.4-2.4-2.4H5.8z"/>
	<rect x="1.7" y="40" class="st0" width="126.3" height="3.4"/>
	<g>
		<path class="st0" d="M17.3,24c-1,0-1.7-0.7-1.7-1.7V1.7c0-1,0.7-1.7,1.7-1.7S19,0.7,19,1.7v20.7C19,23.3,18.3,24,17.3,24z"/>
		<path class="st0" d="M36.3,24c-1,0-1.7-0.7-1.7-1.7V1.7c0-1,0.7-1.7,1.7-1.7S38,0.7,38,1.7v20.7C38,23.3,37.3,24,36.3,24z"/>
		<path class="st0" d="M55.3,24c-1,0-1.7-0.7-1.7-1.7V1.7c0-1,0.7-1.7,1.7-1.7S57,0.7,57,1.7v20.7C57,23.3,56.3,24,55.3,24z"/>
		<path class="st0" d="M74.3,24c-1,0-1.7-0.7-1.7-1.7V1.7c0-1,0.7-1.7,1.7-1.7S76,0.7,76,1.7v20.7C76,23.3,75.3,24,74.3,24z"/>
		<path class="st0" d="M93.3,24c-1,0-1.7-0.7-1.7-1.7V1.7c0-1,0.7-1.7,1.7-1.7S95,0.7,95,1.7v20.7C95,23.3,94.3,24,93.3,24z"/>
		<path class="st0" d="M112.3,24c-1,0-1.7-0.7-1.7-1.7V1.7c0-1,0.7-1.7,1.7-1.7s1.7,0.7,1.7,1.7v20.7C114,23.3,113.3,24,112.3,24z"
			/>
	</g>
	<g>
		<path class="st0" d="M30.3,102.3l6.5-0.9c0.7,3.8,2.1,6.3,3.9,8c1.9,1.7,4.1,2.4,6.7,2.4c3.1,0,5.6-1,7.9-3.3
			c2.1-2.2,3.3-4.8,3.3-8c0-3.1-1-5.5-2.9-7.5c-2.1-1.9-4.4-2.9-7.5-2.9c-1.2,0-2.7,0.2-4.6,0.7l0.7-5.8c0.5,0,0.9,0,1,0
			c2.7,0,5.3-0.7,7.5-2.2c2.2-1.5,3.4-3.8,3.4-6.7c0-2.4-0.9-4.4-2.4-6c-1.7-1.5-3.8-2.4-6.3-2.4s-4.6,0.9-6.3,2.4
			c-1.7,1.5-2.7,3.9-3.3,7.2L31,76.7c0.9-4.4,2.6-7.9,5.5-10.3c2.9-2.4,6.3-3.6,10.6-3.6c2.9,0,5.6,0.7,8,1.9
			c2.4,1.2,4.3,2.9,5.6,5.1c1.4,2.2,1.9,4.4,1.9,6.8S62,81.1,60.8,83c-1.2,1.9-3.1,3.4-5.5,4.4c3.1,0.7,5.6,2.2,7.4,4.6
			c1.7,2.2,2.6,5.1,2.6,8.6c0,4.6-1.7,8.6-5.1,11.8c-3.4,3.3-7.7,4.8-13,4.8c-4.6,0-8.6-1.4-11.6-4.3
			C32.3,110,30.8,106.8,30.3,102.3z"/>
		<path class="st0" d="M96.7,116.6h-6.5V74.6c-1.5,1.5-3.6,3.1-6.2,4.4c-2.6,1.5-4.8,2.6-6.8,3.4v-6.3c3.6-1.7,6.8-3.8,9.6-6.3
			c2.7-2.4,4.6-4.8,5.8-7.2h4.3v53.9H96.7z"/>
	</g>
</g>
</svg>
