<?xml version="1.0" encoding="utf-8"?>
<!-- Generator: Adobe Illustrator 19.0.1, SVG Export Plug-In . SVG Version: 6.00 Build 0)  -->
<svg version="1.1" id="Layer_1" xmlns="http://www.w3.org/2000/svg" xmlns:xlink="http://www.w3.org/1999/xlink" x="0px" y="0px"
	 viewBox="0 0 113.4 150" style="enable-background:new 0 0 113.4 150;" xml:space="preserve">
<style type="text/css">
	.st0{fill:#DA7554;}
</style>
<path class="st0" d="M70.4,62.2c0.9-0.7,1-1.9,0.3-2.7c-0.7-0.9-1.9-1-2.7-0.3l-12.1,9.2c-1.2-0.9-2.6-1.4-4.1-1.4
	c-1.4,0-2.7,0.5-3.8,1.2L30,52c-0.9-0.7-2-0.7-2.7,0.2c-0.7,0.9-0.7,2,0.2,2.7l18.1,16.2l0,0c-0.3,0.9-0.7,1.9-0.7,2.9
	c0,3.9,3.1,7,7,7s7-3.1,7-7c0-0.9-0.2-1.9-0.5-2.6L70.4,62.2z M51.8,77c-1.7,0-3.1-1.4-3.1-3.1c0-1.7,1.4-3.1,3.1-3.1
	c1.7,0,3.1,1.4,3.1,3.1C54.9,75.7,53.5,77,51.8,77z M20.8,74.7h-8.7c-0.9,0-1.5-0.7-1.5-1.5c0-0.9,0.7-1.5,1.5-1.5h8.7
	c0.9,0,1.5,0.7,1.5,1.5C22.3,73.8,21.6,74.7,20.8,74.7z M83.5,71.4h8.7c0.9,0,1.5,0.7,1.5,1.5s-0.7,1.5-1.5,1.5h-8.7
	c-0.9,0-1.5-0.7-1.5-1.5C81.8,72.1,82.7,71.4,83.5,71.4z M50.6,43.5v-8.5c0-0.9,0.7-1.5,1.5-1.5s1.5,0.7,1.5,1.5v8.5
	c0,0.9-0.7,1.5-1.5,1.5C51.3,45.2,50.6,44.5,50.6,43.5z M53.9,106.2v8.7c0,0.9-0.7,1.5-1.5,1.5s-1.5-0.7-1.5-1.5v-8.7
	c0-0.9,0.7-1.5,1.5-1.5S53.9,105.3,53.9,106.2z M18.9,55.9c0-1,0.9-1.9,1.9-1.9s1.9,0.9,1.9,1.9c0,1-0.9,1.9-1.9,1.9
	C19.8,57.8,18.9,56.9,18.9,55.9z M85.4,54c1,0,1.9,0.9,1.9,1.9c0,1-0.9,1.9-1.9,1.9s-1.9-0.9-1.9-1.9C83.5,54.9,84.4,54,85.4,54z
	 M31.2,41.1c0-1,0.9-1.9,1.9-1.9s1.9,0.9,1.9,1.9S34.1,43,33.1,43S31.2,42.1,31.2,41.1z M69.5,41.1c0-1,0.9-1.9,1.9-1.9
	c1,0,1.9,0.9,1.9,1.9S72.4,43,71.4,43C70.4,43,69.5,42.1,69.5,41.1z M22.8,93.9c0,1-0.9,1.9-1.9,1.9s-1.9-0.9-1.9-1.9
	c0-1,0.9-1.9,1.9-1.9S22.8,92.9,22.8,93.9z M87.4,93.9c0,1-0.9,1.9-1.9,1.9c-1,0-1.9-0.9-1.9-1.9c0-1,0.9-1.9,1.9-1.9
	C86.6,92,87.4,92.9,87.4,93.9z M35.1,108.6c0,1-0.9,1.9-1.9,1.9s-1.9-0.9-1.9-1.9c0-1,0.9-1.9,1.9-1.9S35.1,107.6,35.1,108.6z
	 M73.5,108.6c0,1-0.9,1.9-1.9,1.9s-1.9-0.9-1.9-1.9c0-1,0.9-1.9,1.9-1.9S73.5,107.6,73.5,108.6z M79.1,30.7L79.1,30.7L79.1,30.7
	L79.1,30.7z M111.6,65.3h-8.4c-0.7-3.6-1.7-7.2-3.2-10.6l-1.5-3.2c0.3,0.7,0.5,1.2,0.9,1.9c-2.6-5.6-6.3-10.7-10.7-15.2l-2.2-25.7
	C85.7,5.1,80.5,0,73.1,0H31c-7.3,0-12.6,5.1-13.3,12.4l-2.2,25.7c-4.4,4.3-8,9.4-10.7,15.2l-0.7,1.4C1.4,61,0,67.8,0,75
	c0,14.5,6,27.6,15.5,37l2.2,25.6c0.7,7.3,6,12.4,13.3,12.4h42.1c7.3,0,12.6-5.1,13.3-12.4l2.2-25.7c7.3-7.2,12.6-16.5,14.5-27.1h8.4
	c1,0,1.9-0.9,1.9-1.9v-16C113.4,66,112.7,65.3,111.6,65.3z M21.6,12.4c0.7-5.1,4.3-8.5,9.4-8.5h42.1c5.1,0,8.7,3.4,9.4,8.5l1.9,22
	c-1.7-1.4-3.4-2.6-5.3-3.8L76,28.8C68.9,25.1,60.7,23,52.2,23c-8.7,0-16.7,2.2-23.9,5.8l-3.1,1.9l0,0l0,0c-1.9,1.2-3.6,2.4-5.3,3.8
	L21.6,12.4z M82.5,137.6c-0.7,5.1-4.3,8.5-9.4,8.5H31c-5.1,0-8.7-3.4-9.4-8.5l-1.9-21.8c8.9,7,20.1,11.2,32.2,11.2
	c5.8,0,11.2-1,16.5-2.7l1.9-0.7c2.6-1,5.1-2,7.3-3.4l1.2-0.7c1.9-1.2,3.8-2.4,5.5-3.7L82.5,137.6z M52.2,123.4
	c-26.8,0-48.4-21.6-48.4-48.4s21.6-48.4,48.4-48.4s48.4,21.6,48.4,48.4S78.9,123.4,52.2,123.4z M109.8,81.3h-6
	c0.2-2,0.3-4.1,0.3-6.1c0-2-0.2-4.1-0.3-6.1h6V81.3z"/>
</svg>
