<?xml version="1.0" encoding="utf-8"?>
<!-- Generator: Adobe Illustrator 19.0.1, SVG Export Plug-In . SVG Version: 6.00 Build 0)  -->
<svg version="1.1" id="Layer_1" xmlns="http://www.w3.org/2000/svg" xmlns:xlink="http://www.w3.org/1999/xlink" x="0px" y="0px"
	 viewBox="-268.6 326.3 130 140.1" style="enable-background:new -268.6 326.3 130 140.1;" xml:space="preserve">
<style type="text/css">
	.st0{fill:#D15352;}
</style>
<g>
	<path class="st0" d="M-144.4,336.6h-10.1v-8.6c0-1-0.7-1.7-1.7-1.7c-1,0-1.7,0.7-1.7,1.7v8.6h-15.6v-8.6c0-1-0.7-1.7-1.7-1.7
		c-1,0-1.7,0.7-1.7,1.7v8.6h-15.6v-8.6c0-1-0.7-1.7-1.7-1.7c-1,0-1.7,0.7-1.7,1.7v8.6h-15.6v-8.6c0-1-0.7-1.7-1.7-1.7
		c-1,0-1.7,0.7-1.7,1.7v8.6h-15.6v-8.6c0-1-0.7-1.7-1.7-1.7c-1,0-1.7,0.7-1.7,1.7v8.6h-15.6v-8.6c0-1-0.7-1.7-1.7-1.7
		c-1,0-1.7,0.7-1.7,1.7v8.6h-9.8c-3.3,0-5.8,2.6-5.8,5.8v118.2c0,3.3,2.6,5.8,5.8,5.8h118.2c3.3,0,5.8-2.6,6-5.7V342.4
		C-138.6,339.2-141.1,336.6-144.4,336.6z M-262.7,340h9.8v8.6c0,1,0.7,1.7,1.7,1.7c1,0,1.7-0.7,1.7-1.5V340h15.6v8.6
		c0,1,0.7,1.7,1.7,1.7c1,0,1.7-0.7,1.7-1.5V340h15.6v8.6c0,1,0.7,1.7,1.7,1.7c1,0,1.7-0.7,1.7-1.5V340h15.6v8.6c0,1,0.7,1.7,1.7,1.7
		c1,0,1.7-0.7,1.7-1.5V340h15.6v8.6c0,1,0.7,1.7,1.7,1.7c1,0,1.7-0.7,1.7-1.5V340h15.6v8.6c0,1,0.7,1.7,1.7,1.7c1,0,1.7-0.7,1.7-1.5
		V340h10.1c1.4,0,2.4,1,2.4,2.4v24h-123.1v-24C-265.1,341.1-264.1,340-262.7,340z M-144.4,463.2h-118.4c-1.4,0-2.4-1-2.4-2.4v-90.9
		H-142v90.9C-142,462.2-143,463.2-144.4,463.2z"/>
	<polygon class="st0" points="-239.9,393.6 -238.4,398.7 -228,395.4 -228,444.5 -221.9,444.5 -221.9,389 -226.5,389 	"/>
	<polygon class="st0" points="-204.6,395 -174.3,395 -199.2,444.5 -192.3,444.5 -167.2,394 -167.2,389.4 -204.6,389.4 	"/>
</g>
</svg>
