<?xml version="1.0" encoding="utf-8"?>
<!-- Generator: Adobe Illustrator 19.0.1, SVG Export Plug-In . SVG Version: 6.00 Build 0)  -->
<svg version="1.1" id="Layer_1" xmlns="http://www.w3.org/2000/svg" xmlns:xlink="http://www.w3.org/1999/xlink" x="0px" y="0px"
	 viewBox="0 0 500 402" style="enable-background:new 0 0 500 402;" xml:space="preserve">
<style type="text/css">
	.st0{fill:#7C7D7D;}
	.st1{fill:#FFFFFF;}
	.st2{fill:#F1F2F2;}
</style>
<g>
	<path class="st0" d="M59.3,253.1H53c9.1,34,27,65.2,52.6,90.6c37.9,37.5,88.1,58.2,141.5,58.2l1.7,0c53.7-0.5,104-21.8,141.6-60.1
		c24.7-25.1,42-55.6,50.8-88.8H435c-8.7,31.6-25.3,60.6-48.9,84.6c-36.5,37.1-85.3,57.8-137.4,58.3l-1.7,0
		c-51.7,0-100.5-20.1-137.2-56.5C85.4,315.2,68.2,285.5,59.3,253.1 M410.1,253.1H84.2c22.2,69.5,87.6,119.6,164.4,119
		C324.4,371.4,388.2,321.6,410.1,253.1 M0,149l17.1,53.9L0.3,248.2h498L481.2,199l18.8-50H0z M85.8,144.2h124.8
		c0.1-8.8-0.1-15.3-0.1-16c-0.2-2.8-1.4-3.5-1.4-3.5c-0.2-0.1-3.9-3.5-3.9-3.5c-3.2-2.7-1.8-12.3-1.8-12.3l1.9-26.3l1.3,0l0.2,29
		c0,0.7,0.6,1.3,1.4,1.3c0.8,0,1.4-0.6,1.4-1.3l-0.2-29l1.4,0l0.2,29.1c0,0.7,0.6,1.3,1.4,1.3c0.8,0,1.4-0.6,1.4-1.3l-0.2-29.1
		l1.4,0l0.2,29c0,0.7,0.6,1.3,1.4,1.3c0.8,0,1.4-0.6,1.4-1.3l-0.2-29l1.2,0l2.4,26.2c0,0,1.7,9.6-1.5,12.4c0,0-3.6,3.4-3.8,3.6
		c0,0-1.1,0.7-1.3,3.2h0c0,0.1,0,0.1,0,0.2c0,0-0.1,6.7,0.2,16.1h24.3l-0.2-21.8c0-0.5,0.2-1,0.4-1.4c-0.4-5.8-3.2-13.6-6.7-21.7
		c-3.7-8.6-8.2-17.6-11.3-25.3c-2-5.1-3.4-9.6-3.4-13.1c-0.1-13.7,11.5-24.4,24.1-24.5c12.6-0.1,24.4,10.4,24.5,24.1
		c0,5.2-2.9,12.8-6.5,21.3c-3.6,8.4-8,17.6-10.8,25.8c-1.7,5-2.9,9.6-3.1,13.4c0.3,0.4,0.5,0.8,0.5,1.3l0.2,21.8h26.3
		c0.1-10.8-0.1-18.7-0.1-18.7c0-1.9-2.6-3.3-3.7-3.9c-5.1-2.1-8.7-7-9-12.8l0,0c0,0,0-0.1,0-0.2c0-0.1,0-0.3,0-0.4
		c0-1.2,0.1-2.1,0.3-3.6c0.7-5.1,2.5-12.5,8.3-19.6c0.7-1,1.9-1.8,3-2.3c0,0,0,0,0,0v0c0.9-0.4,1.9-0.7,2.9-0.7c1.1,0,2.1,0.2,3,0.6
		l0,0c0.1,0,0.1,0,0.2,0.1c0.9,0.5,1.6,1.1,2.3,1.9c6.3,6,8.3,15.4,9,20.4c0.2,0.9,0.3,1.9,0.3,2.9c0,0.1,0,0.2,0,0.3
		c0,0.1,0,0.1,0,0.1v0c-0.1,5.6-3.2,10.3-7.9,12.7l-0.3,0.1c0,0-4,1.7-3.9,4.2c0,0-0.1,8,0.2,18.8h130.8
		C384.9,77.1,320.8,29.3,245.7,29.9C171.6,30.5,109,78.1,85.8,144.2 M227.2,67.6c-0.3-1.5-0.5-3.4-0.6-5.4c0-4.6,0.8-10.2,3.2-15.1
		c1.7-3.5,4.1-6.6,7.5-8.6c-4.2,1-8,3.2-11.1,6.2c-4.2,4.2-7,9.9-6.9,16.4c0,4.8,3,12.3,6.7,20.6c3.7,8.3,8.2,17.5,11.3,25.7
		c1.7,4.7,3,9.1,3.3,12.9c0.1,0,0.3-0.1,0.4-0.1c-0.2-2.7-0.9-6.3-1.9-10.4c-1.2-5-2.7-10.6-4.4-16.2
		C231.6,82.4,228.1,71.7,227.2,67.6 M239.6,38.7c-3.9,1.8-6.7,5-8.5,8.9c-2.2,4.6-3.1,10.1-3,14.6c0,2,0.2,3.8,0.5,5.2
		c0.7,2.9,2.8,9.7,5.2,17.6c2.4,7.9,5.1,16.9,6.8,24.4c0.3,1.4,0.6,2.8,0.9,4.1c0-1.8,0.1-3.7,0.2-5.7c0-1,0.1-2.1,0.1-3.2
		c-0.4-4.3-0.9-8.5-1.5-11.1c-0.4-2-1.8-6.9-3.1-13.1c-1.3-6.2-2.5-13.7-2.6-21C234.6,51.7,235.8,44.3,239.6,38.7 M241.8,37.9
		c-4.4,5.3-5.9,13.2-5.8,21.5c0.1,7.2,1.2,14.6,2.5,20.7c1.3,6.1,2.6,11,3.1,13.1c0.2,1.1,0.4,2.5,0.7,4.1c0.1-1.6,0.3-3,0.5-4.1
		c0.4-2.2,1.7-7.1,2.9-13.3c1.2-6.2,2.3-13.7,2.3-20.9C247.9,50.8,246.3,43,241.8,37.9 M242.9,120.1c0-0.9-0.1-2-0.2-3.4
		c0,1.4,0,2.5,0,3.4H242.9z M243.8,38.3c4.1,5.5,5.4,13,5.5,20.7c0.1,7.3-1.1,14.9-2.3,21.2c-1.2,6.2-2.6,11.2-2.9,13.2
		c-0.5,2.6-0.8,6.8-1,11.1c0.3,3.3,0.6,6.7,0.8,9.6c0.3-1.5,0.6-3.1,1-4.8c1.1-5,2.6-10.7,4.1-16.3c3.1-11.2,6.4-22,7.2-25.9
		c0.3-1.4,0.4-3.2,0.4-5.2c0-4.4-1-9.9-3.3-14.5C251.3,43.3,248.3,39.9,243.8,38.3 M258.1,44.3c-3.1-3-7-5.1-11.2-6
		c3.4,2,5.9,5.1,7.6,8.5c2.4,4.9,3.4,10.5,3.4,15.1c0,2.1-0.1,3.9-0.5,5.5c-0.6,3.1-2.6,9.9-4.9,17.8c-2.3,7.9-4.8,17-6.4,24.4
		c-0.9,4.2-1.5,7.8-1.7,10.5c0.1,0,0.3,0,0.4,0.1c0.5-6.1,3.2-13.6,6.4-21.5c3.6-8.7,8-17.8,10.8-25.4c1.9-5.1,3.2-9.5,3.1-12.7
		C265.2,54.1,262.4,48.4,258.1,44.3 M433.7,144.2h6.3c-9.4-32.2-26.8-61.7-51.3-85.9C350.7,20.7,300.5,0,247.2,0l-1.7,0
		C155,0.8,78.8,61.6,54.4,144.2h6.3C84.9,64.9,158.3,6.8,245.5,6l1.7,0c51.7,0,100.5,20.1,137.2,56.5
		C407.7,85.6,424.4,113.6,433.7,144.2"/>
</g>
<g>
	<path class="st1" d="M37.6,200.7L37.6,200.7c0-6.6,5-11.7,11.8-11.7c4.6,0,7.5,1.9,9.5,4.7l-4.7,3.6c-1.3-1.6-2.8-2.6-4.9-2.6
		c-3.1,0-5.4,2.7-5.4,5.9v0.1c0,3.4,2.2,6,5.4,6c2.3,0,3.7-1.1,5.1-2.7l4.7,3.3c-2.1,2.9-5,5.1-9.9,5.1
		C42.7,212.3,37.6,207.4,37.6,200.7z"/>
	<path class="st1" d="M61.9,200.7L61.9,200.7c0-6.5,5.2-11.7,12.1-11.7s12.1,5.2,12.1,11.6v0.1c0,6.4-5.2,11.7-12.1,11.7
		C67.1,212.3,61.9,207.1,61.9,200.7z M79.8,200.7L79.8,200.7c0-3.3-2.3-6.1-5.8-6.1c-3.4,0-5.7,2.8-5.7,6v0.1c0,3.2,2.3,6.1,5.7,6.1
		C77.5,206.7,79.8,203.9,79.8,200.7z"/>
	<path class="st1" d="M91,189.4h10.6c3.4,0,5.8,0.9,7.3,2.4c1.3,1.3,2,3,2,5.2v0.1c0,3.4-1.8,5.7-4.6,6.9l5.4,7.8h-7.2l-4.5-6.8
		h-0.1h-2.7v6.8H91V189.4z M101.3,200.2c2.1,0,3.3-1,3.3-2.7v-0.1c0-1.8-1.3-2.7-3.4-2.7h-4.1v5.4H101.3z"/>
	<path class="st1" d="M115.6,189.4h9.6c5.7,0,9.3,2.9,9.3,7.9v0.1c0,5.3-4.1,8.1-9.7,8.1h-3.1v6.4h-6.2V189.4z M124.8,200.6
		c2.2,0,3.6-1.2,3.6-2.9v-0.1c0-1.9-1.3-3-3.6-3h-2.9v5.9H124.8z"/>
	<path class="st1" d="M138.1,200.7L138.1,200.7c0-6.5,5.2-11.7,12.1-11.7s12.1,5.2,12.1,11.6v0.1c0,6.4-5.2,11.7-12.1,11.7
		C143.2,212.3,138.1,207.1,138.1,200.7z M155.9,200.7L155.9,200.7c0-3.3-2.3-6.1-5.8-6.1c-3.4,0-5.7,2.8-5.7,6v0.1
		c0,3.2,2.3,6.1,5.7,6.1C153.6,206.7,155.9,203.9,155.9,200.7z"/>
	<path class="st1" d="M167,189.4h10.6c3.4,0,5.8,0.9,7.3,2.4c1.3,1.3,2,3,2,5.2v0.1c0,3.4-1.8,5.7-4.6,6.9l5.4,7.8h-7.2L176,205
		h-0.1h-2.7v6.8H167V189.4z M177.4,200.2c2.1,0,3.3-1,3.3-2.7v-0.1c0-1.8-1.3-2.7-3.4-2.7h-4.1v5.4H177.4z"/>
	<path class="st1" d="M199.1,189.2h6l9.6,22.6H208l-1.6-4h-8.7l-1.6,4h-6.5L199.1,189.2z M204.5,203l-2.5-6.4l-2.5,6.4H204.5z"/>
	<path class="st1" d="M221,194.8h-6.7v-5.5H234v5.5h-6.7v17H221V194.8z"/>
	<path class="st1" d="M238.3,189.4h18.1v5.3h-11.9v3.4h10.8v4.9h-10.8v3.6h12.1v5.3h-18.2V189.4z"/>
	<path class="st1" d="M271,200.7L271,200.7c0-6.6,5-11.7,11.8-11.7c4.6,0,7.5,1.9,9.5,4.7l-4.7,3.6c-1.3-1.6-2.8-2.6-4.9-2.6
		c-3.1,0-5.4,2.7-5.4,5.9v0.1c0,3.4,2.2,6,5.4,6c2.3,0,3.7-1.1,5.1-2.7l4.7,3.3c-2.1,2.9-5,5.1-9.9,5.1
		C276.2,212.3,271,207.4,271,200.7z"/>
	<path class="st1" d="M295.4,200.7L295.4,200.7c0-6.5,5.2-11.7,12.1-11.7s12.1,5.2,12.1,11.6v0.1c0,6.4-5.2,11.7-12.1,11.7
		C300.5,212.3,295.4,207.1,295.4,200.7z M313.2,200.7L313.2,200.7c0-3.3-2.3-6.1-5.8-6.1c-3.4,0-5.7,2.8-5.7,6v0.1
		c0,3.2,2.3,6.1,5.7,6.1C310.9,206.7,313.2,203.9,313.2,200.7z"/>
	<path class="st1" d="M323.6,200.7L323.6,200.7c0-6.5,5.2-11.7,12.1-11.7s12.1,5.2,12.1,11.6v0.1c0,6.4-5.2,11.7-12.1,11.7
		C328.8,212.3,323.6,207.1,323.6,200.7z M341.5,200.7L341.5,200.7c0-3.3-2.3-6.1-5.8-6.1c-3.4,0-5.7,2.8-5.7,6v0.1
		c0,3.2,2.3,6.1,5.7,6.1C339.2,206.7,341.5,203.9,341.5,200.7z"/>
	<path class="st1" d="M352.7,189.4h6.2v9.1l7.7-9.1h7.4l-8.5,9.7l8.8,12.8h-7.5l-5.6-8.3l-2.3,2.5v5.8h-6.2V189.4z"/>
	<path class="st1" d="M375.4,199.1h10.5v5.4h-10.5V199.1z"/>
	<path class="st1" d="M390,200.7L390,200.7c0-6.5,5.2-11.7,12.1-11.7s12.1,5.2,12.1,11.6v0.1c0,6.4-5.2,11.7-12.1,11.7
		C395.1,212.3,390,207.1,390,200.7z M407.8,200.7L407.8,200.7c0-3.3-2.3-6.1-5.8-6.1c-3.4,0-5.7,2.8-5.7,6v0.1
		c0,3.2,2.3,6.1,5.7,6.1C405.6,206.7,407.8,203.9,407.8,200.7z"/>
	<path class="st1" d="M419,189.4h18v5.5h-11.7v3.8h10.6v5.2h-10.6v8H419V189.4z"/>
	<path class="st1" d="M441.4,189.4h18v5.5h-11.7v3.8h10.6v5.2h-10.6v8h-6.2V189.4z"/>
</g>
<g>
	<path class="st2" d="M253.5,327c2.2,0,3.6-0.8,4.8-2.1l-1.3-1.4c-1,1-2,1.5-3.4,1.5c-2.3,0-3.9-1.9-3.9-4.2v0
		c0-2.3,1.7-4.2,3.9-4.2c1.4,0,2.4,0.6,3.3,1.5l1.3-1.6c-1.1-1.1-2.5-1.9-4.7-1.9c-3.6,0-6.2,2.8-6.2,6.2v0
		C247.5,324.3,250,327,253.5,327L253.5,327z M261.6,326.8h2.1l1.2-2.9h5.6l1.2,2.9h2.2l-5.3-12h-1.9L261.6,326.8L261.6,326.8z
		 M265.7,322.1l2-4.8l2.1,4.8H265.7L265.7,322.1z M277.5,326.8h2.1v-4.2h2.6l2.9,4.2h2.5l-3.2-4.5c1.7-0.5,2.8-1.7,2.8-3.6v0
		c0-1-0.4-1.9-1-2.6c-0.8-0.8-1.9-1.2-3.4-1.2h-5.3V326.8L277.5,326.8z M279.6,320.8v-4h3.1c1.6,0,2.5,0.7,2.5,2v0c0,1.2-1,2-2.5,2
		H279.6L279.6,320.8z M291.2,326.8h8.9V325h-6.8v-3.2h6v-1.9h-6v-3.1h6.8v-1.9h-8.9V326.8L291.2,326.8z"/>
	<path class="st2" d="M185.1,309.5c3.2,0,5.2-1.2,6.9-3l-1.9-2c-1.5,1.4-2.8,2.2-4.9,2.2c-3.3,0-5.6-2.7-5.6-6.1v0
		c0-3.3,2.4-6,5.6-6c2,0,3.4,0.9,4.8,2.1l1.9-2.2c-1.6-1.6-3.5-2.7-6.7-2.7c-5.2,0-8.8,4-8.8,8.8v0
		C176.4,305.6,180.1,309.5,185.1,309.5L185.1,309.5z M205.1,309.5c4.5,0,7.4-2.6,7.4-7.7v-9.7h-3v9.8c0,3.2-1.6,4.7-4.3,4.7
		c-2.7,0-4.3-1.7-4.3-4.9v-9.7h-3v9.8C197.9,306.9,200.7,309.5,205.1,309.5L205.1,309.5z M235.4,309.2h3v-17.1h-3V309.2L235.4,309.2
		z M245.4,309.2h3V297l9.4,12.2h2.5v-17.1h-3v11.8l-9.2-11.8h-2.8V309.2L245.4,309.2z M265.6,309.2h3.1l1.8-4.1h8.1l1.7,4.1h3.2
		l-7.5-17.2h-2.8L265.6,309.2L265.6,309.2z M271.6,302.4l2.9-6.8l3,6.8H271.6L271.6,302.4z M288.4,309.2h3v-6h3.8l4.2,6h3.6
		l-4.6-6.5c2.4-0.7,4.1-2.4,4.1-5.2v0c0-1.5-0.5-2.8-1.4-3.7c-1.1-1.1-2.8-1.7-4.9-1.7h-7.6V309.2L288.4,309.2z M291.4,300.6v-5.7
		h4.4c2.2,0,3.5,1,3.5,2.8v0c0,1.7-1.4,2.9-3.5,2.9H291.4L291.4,300.6z M312.9,309.2h3v-6.8l6.8-10.3h-3.4l-4.8,7.5l-4.8-7.5h-3.6
		l6.8,10.4V309.2L312.9,309.2z"/>
	<path class="st2" d="M236.3,327.4c-1.9-0.3-3.5-1.6-4.3-3.2c0,0-2,1.1-1.3,3c0.2,0.5,0.4,0.6,0.4,2.4c0,1.8,0,4.1,1,5.6
		c1.1,1.8,2.8,3,5.1,3.4c1.5,0.2,3.1-0.8,3.6-2.3C242.2,332.4,239.8,328,236.3,327.4L236.3,327.4z M226.9,312.7
		c-0.4-1-0.9-2.1-1.3-3.4c0.5-1.5,1.1-3.3,1.6-5.2c0.6-2,1.1-4.2,1.6-6.4c0.5-2.2,1-4.5,1.4-6.9c0.4-2.3,0.7-4.6,0.9-6.8
		c0.2-2.2,0.3-4.3,0.3-6.2c0-2-0.2-3.7-0.5-5.2c-0.3-1.5-0.9-2.8-1.6-3.7c-0.8-1-1.8-1.5-3.1-1.5l-0.1,0c-1.5,0-2.7,0.5-3.8,1.4
		c-1,0.9-1.9,2.2-2.5,3.7c-0.6,1.5-1.1,3.3-1.4,5.3c-0.3,2-0.5,4.1-0.5,6.4c0,2.2,0,4.6,0.2,6.9c0.2,2.4,0.4,4.7,0.8,6.9
		c0.3,2.2,0.7,4.3,1.2,6.3c0.4,1.9,0.9,3.5,1.4,4.9c-1.1,2.5-2.1,4.7-3.1,6.4c-0.7,1.3-1.3,2.4-1.8,3.4c-0.2,0.4-0.4,0.8-0.6,1.1
		c-0.1,0.3-0.1,0.5,0,0.8c0.2,0.3,0.6,0.5,1.2,0.5c0.3,0,0.6,0,0.8-0.1c0.5-0.2,1-0.5,1.5-1c0.4-0.5,0.9-1,1.3-1.7
		c0.4-0.7,0.8-1.4,1.2-2.1c0.4-0.7,0.7-1.5,1-2.2c0.1-0.2,0.2-0.5,0.3-0.7c0.8,1.9,1.5,3.5,2.1,4.7c0.7,1.5,1.4,2.5,1.9,3.2
		c0.6,0.8,1.2,1.2,1.8,1.3c0.2,0,0.4,0.1,0.6,0.1c0.3,0,0.7,0,1.1-0.1l0.7-0.2l-0.3-0.7c-0.5-1.1-1-2.2-1.6-3.2c-0.5-1-1-2-1.5-3
		C227.8,314.8,227.3,313.8,226.9,312.7L226.9,312.7z M225.9,271.2c0.4,0.1,0.8,0.8,0.9,1.2c0.3,0.9,0.6,2.2,0.7,3.7
		c0.1,1.6,0.1,3.5,0,5.7c-0.1,2.2-0.4,4.6-0.7,7.1c-0.4,2.6-0.9,5.3-1.5,8c-0.5,2.1-1,4.2-1.6,6.2c-0.5-2.1-0.9-4.2-1.2-6.3
		c-0.4-2.8-0.6-5.6-0.7-8.2c-0.1-2.6,0-5,0.2-7.3c0.2-2.2,0.5-4.2,1-5.8c0.4-1.6,0.9-2.8,1.5-3.6c0.4-0.6,0.9-1,1.3-1
		C225.9,271.2,225.9,271.2,225.9,271.2L225.9,271.2z M215.1,322.3c-0.3,0.5-1.6,1.5-2.2,1.5c-0.6,0-1.2-0.1-1.8,0
		c-0.2,0-0.4,0.1-0.6,0.1c-0.9,0.3-1.5,0.9-2,1.6c-1.6,2.3-3.2,4.7-4.7,7.1c-0.6,1.1,0.4,2.2,1.3,1.2c1.3-1.8,2.5-3.6,3.8-5.4
		c0.1-0.1,0.1-0.2,0.2-0.2c0.3-0.4,0.9-0.3,1.1,0.2c0.1,0.3,0,0.6-0.2,0.8c-1.3,1.8-2.6,3.7-3.9,5.5c-0.9,1.1,0.8,2.2,1.5,1.2
		c0.8-1.1,1.6-2.3,2.4-3.4c0.5-0.7,1-1.4,1.5-2.1c0.2-0.2,0.3-0.4,0.6-0.4c0.3,0,0.5,0.1,0.6,0.4c0.1,0.3,0.1,0.5-0.1,0.8
		c-0.6,0.8-1.1,1.6-1.7,2.3c-0.7,1-1.5,2.1-2.2,3.1c-0.7,1,0.7,1.9,1.5,0.9c1.7-2.2,3.5-4.5,5.1-6.7c0.7-1,1-2,0.8-3.2
		c-0.1-0.6-0.3-1.1-0.5-1.6c-0.2-0.6-0.3-0.7,0.2-1.5C216.7,323.7,215.1,322.3,215.1,322.3L215.1,322.3z"/>
</g>
</svg>
