<?xml version="1.0" encoding="utf-8"?>
<!-- Generator: Adobe Illustrator 15.1.0, SVG Export Plug-In . SVG Version: 6.00 Build 0)  -->
<!DOCTYPE svg PUBLIC "-//W3C//DTD SVG 1.1//EN" "http://www.w3.org/Graphics/SVG/1.1/DTD/svg11.dtd">
<svg version="1.1" xmlns="http://www.w3.org/2000/svg" xmlns:xlink="http://www.w3.org/1999/xlink" x="0px" y="0px"
	 width="82.007px" height="224.081px" viewBox="0 0 82.007 224.081" enable-background="new 0 0 82.007 224.081"
	 xml:space="preserve">
<g id="Layer_1" display="none">
	<g display="inline">
		<path d="M42.003,21.001c0,11.619-9.383,21.001-21.001,21.001S0,32.62,0,21.001S9.383,0,21.001,0S42.003,9.383,42.003,21.001z
			 M36.752,13.32c-1.069,0.438-2.236,0.778-3.452,0.924c1.264-0.729,2.139-1.896,2.577-3.306c-1.167,0.68-2.382,1.167-3.743,1.458
			c-1.07-1.167-2.625-1.896-4.327-1.896c-3.306,0-5.931,2.673-5.931,5.979c0,0.438,0.049,0.923,0.146,1.361
			c-4.959-0.243-9.383-2.625-12.348-6.271c-0.486,0.924-0.778,1.944-0.778,3.014c0,2.09,1.021,3.889,2.625,4.958
			c-0.972,0-1.896-0.292-2.674-0.729v0.048c0,2.917,2.042,5.299,4.765,5.882c-0.486,0.146-1.021,0.195-1.556,0.195
			c-0.389,0-0.778-0.049-1.118-0.098c0.729,2.382,2.965,3.987,5.542,4.035c-2.042,1.604-4.57,2.723-7.39,2.723
			c-0.486,0-0.972-0.049-1.41-0.098c2.625,1.702,5.785,2.625,9.14,2.625c10.987,0,16.966-9.091,16.966-16.966
			c0-0.243,0-0.535,0-0.778C34.954,15.557,35.926,14.487,36.752,13.32z"/>
	</g>
	<g display="inline">
		<path d="M42.003,67.004c0,11.619-9.431,21.001-21.001,21.001C9.383,88.006,0,78.623,0,67.004c0-11.57,9.383-21.001,21.001-21.001
			C32.572,46.003,42.003,55.434,42.003,67.004z M22.751,59.761c0-1.458,0.292-2.382,2.139-2.382h2.868l0.243-4.959
			c0,0-1.458-0.292-3.986-0.292c-5.153,0-7.39,3.111-7.39,6.611c0,2.285,0,4.764,0,4.764h-3.5v5.25h3.5V81.88h6.125V68.754h4.91
			l0.34-5.202h-5.25V59.761z"/>
	</g>
	<g display="inline">
		<path d="M21.001,134.009C9.383,134.009,0,124.626,0,113.007c0-1.507,0.146-2.965,0.438-4.375h10.063
			c-0.583,1.361-0.875,2.82-0.875,4.375c0,6.271,5.104,11.375,11.376,11.375s11.376-5.104,11.376-11.375
			c0-1.556-0.292-3.014-0.875-4.375h10.063c0.292,1.41,0.438,2.869,0.438,4.375C42.003,124.626,32.62,134.009,21.001,134.009z
			 M29.217,105.132c-2.09-2.139-5.007-3.5-8.216-3.5s-6.125,1.361-8.216,3.5H1.507c3.111-7.681,10.695-13.126,19.495-13.126
			s16.334,5.445,19.495,13.126H29.217z M28.877,113.007c0,4.375-3.549,7.875-7.875,7.875c-4.375,0-7.875-3.5-7.875-7.875
			c0-4.327,3.5-7.875,7.875-7.875C25.328,105.132,28.877,108.681,28.877,113.007z"/>
	</g>
	<g display="inline">
		<path d="M42.003,159.01c0,11.619-9.431,21.002-21.001,21.002C9.383,180.012,0,170.629,0,159.01
			c0-11.569,9.383-21.001,21.001-21.001C32.572,138.009,42.003,147.44,42.003,159.01z M34.127,151.037
			c0-0.923-0.729-1.652-1.653-1.652H9.528c-0.923,0-1.653,0.729-1.653,1.652l13.126,9.82L34.127,151.037z M34.127,154.44
			l-13.126,9.82l-13.126-9.82v12.543c0,0.923,0.729,1.652,1.653,1.652h22.946c0.923,0,1.653-0.729,1.653-1.652V154.44z"/>
	</g>
	<g display="inline">
		<path d="M82.007,18.002c0,9.959-8.042,18.002-18.002,18.002c-9.959,0-18.002-8.042-18.002-18.002C46.003,8.042,54.045,0,64.005,0
			C73.965,0,82.007,8.042,82.007,18.002z M77.507,11.418c-0.917,0.375-1.917,0.667-2.959,0.792c1.083-0.625,1.834-1.625,2.209-2.834
			c-1,0.583-2.042,1-3.209,1.25c-0.917-1-2.25-1.625-3.708-1.625c-2.834,0-5.084,2.292-5.084,5.126c0,0.375,0.042,0.792,0.125,1.167
			c-4.25-0.208-8.043-2.25-10.585-5.375c-0.417,0.792-0.667,1.667-0.667,2.583c0,1.792,0.875,3.334,2.25,4.25
			c-0.833,0-1.625-0.25-2.292-0.625v0.042c0,2.5,1.75,4.542,4.083,5.042c-0.417,0.125-0.875,0.167-1.333,0.167
			c-0.333,0-0.667-0.042-0.958-0.083c0.625,2.042,2.542,3.417,4.751,3.458c-1.75,1.375-3.917,2.333-6.334,2.333
			c-0.417,0-0.833-0.042-1.208-0.083c2.25,1.458,4.959,2.25,7.834,2.25c9.418,0,14.543-7.792,14.543-14.543c0-0.208,0-0.458,0-0.667
			C75.965,13.335,76.798,12.418,77.507,11.418z"/>
	</g>
	<g display="inline">
		<path d="M82.007,58.007c0,9.959-8.084,18.002-18.002,18.002c-9.959,0-18.002-8.042-18.002-18.002
			c0-9.918,8.042-18.002,18.002-18.002C73.923,40.004,82.007,48.089,82.007,58.007z M65.505,51.797c0-1.25,0.25-2.042,1.833-2.042
			h2.458l0.208-4.25c0,0-1.25-0.25-3.417-0.25c-4.417,0-6.334,2.667-6.334,5.667c0,1.958,0,4.084,0,4.084h-3v4.5h3v11.251h5.25
			V59.507h4.209l0.292-4.459h-4.5V51.797z"/>
	</g>
	<g display="inline">
		<path d="M37.542,184.012c0.185,0,0.385,0.078,0.602,0.231l19.167,19.167c0.4,0.401,0.4,0.803,0,1.203L38.144,223.78
			c-0.401,0.401-0.803,0.401-1.204,0l-5.833-5.833c-0.401-0.4-0.401-0.803,0-1.204l12.731-12.731L31.106,191.28
			c-0.401-0.401-0.401-0.802,0-1.204l5.833-5.833C37.156,184.09,37.356,184.012,37.542,184.012z"/>
	</g>
	<g display="inline">
		<path d="M20.07,224.081c-0.185,0-0.386-0.076-0.602-0.231L0.301,204.683c-0.401-0.4-0.401-0.802,0-1.203l19.167-19.167
			c0.4-0.401,0.802-0.401,1.204,0l5.833,5.833c0.4,0.402,0.4,0.803,0,1.204l-12.778,12.731l12.778,12.731
			c0.4,0.401,0.4,0.804,0,1.204l-5.833,5.833C20.456,224.005,20.255,224.081,20.07,224.081z"/>
	</g>
</g>
<g id="Colored">
	<g>
		<path fill="#FFFFFF" d="M42.003,21.001c0,11.619-9.383,21.001-21.001,21.001S0,32.62,0,21.001S9.383,0,21.001,0
			S42.003,9.383,42.003,21.001z M36.752,13.32c-1.069,0.438-2.236,0.778-3.452,0.924c1.264-0.729,2.139-1.896,2.577-3.306
			c-1.167,0.68-2.382,1.167-3.743,1.458c-1.07-1.167-2.625-1.896-4.327-1.896c-3.306,0-5.931,2.673-5.931,5.979
			c0,0.438,0.049,0.923,0.146,1.361c-4.959-0.243-9.383-2.625-12.348-6.271c-0.486,0.924-0.778,1.944-0.778,3.014
			c0,2.09,1.021,3.889,2.625,4.958c-0.972,0-1.896-0.292-2.674-0.729v0.048c0,2.917,2.042,5.299,4.765,5.882
			c-0.486,0.146-1.021,0.195-1.556,0.195c-0.389,0-0.778-0.049-1.118-0.098c0.729,2.382,2.965,3.987,5.542,4.035
			c-2.042,1.604-4.57,2.723-7.39,2.723c-0.486,0-0.972-0.049-1.41-0.098c2.625,1.702,5.785,2.625,9.14,2.625
			c10.987,0,16.966-9.091,16.966-16.966c0-0.243,0-0.535,0-0.778C34.954,15.557,35.926,14.487,36.752,13.32z"/>
	</g>
	<g>
		<path fill="#FFFFFF" d="M42.003,67.004c0,11.619-9.431,21.001-21.001,21.001C9.383,88.006,0,78.623,0,67.004
			c0-11.57,9.383-21.001,21.001-21.001C32.572,46.003,42.003,55.434,42.003,67.004z M22.751,59.761c0-1.458,0.292-2.382,2.139-2.382
			h2.868l0.243-4.959c0,0-1.458-0.292-3.986-0.292c-5.153,0-7.39,3.111-7.39,6.611c0,2.285,0,4.764,0,4.764h-3.5v5.25h3.5V81.88
			h6.125V68.754h4.91l0.34-5.202h-5.25V59.761z"/>
	</g>
	<g>
		<path fill="#FFFFFF" d="M21.001,134.009C9.383,134.009,0,124.626,0,113.007c0-1.507,0.146-2.965,0.438-4.375h10.063
			c-0.583,1.361-0.875,2.82-0.875,4.375c0,6.271,5.104,11.375,11.376,11.375s11.376-5.104,11.376-11.375
			c0-1.556-0.292-3.014-0.875-4.375h10.063c0.292,1.41,0.438,2.869,0.438,4.375C42.003,124.626,32.62,134.009,21.001,134.009z
			 M29.217,105.132c-2.09-2.139-5.007-3.5-8.216-3.5s-6.125,1.361-8.216,3.5H1.507c3.111-7.681,10.695-13.126,19.495-13.126
			s16.334,5.445,19.495,13.126H29.217z M28.877,113.007c0,4.375-3.549,7.875-7.875,7.875c-4.375,0-7.875-3.5-7.875-7.875
			c0-4.327,3.5-7.875,7.875-7.875C25.328,105.132,28.877,108.681,28.877,113.007z"/>
	</g>
	<g>
		<path fill="#FFFFFF" d="M42.003,159.01c0,11.619-9.431,21.002-21.001,21.002C9.383,180.012,0,170.629,0,159.01
			c0-11.569,9.383-21.001,21.001-21.001C32.572,138.009,42.003,147.44,42.003,159.01z M34.127,151.037
			c0-0.923-0.729-1.652-1.653-1.652H9.528c-0.923,0-1.653,0.729-1.653,1.652l13.126,9.82L34.127,151.037z M34.127,154.44
			l-13.126,9.82l-13.126-9.82v12.543c0,0.923,0.729,1.652,1.653,1.652h22.946c0.923,0,1.653-0.729,1.653-1.652V154.44z"/>
	</g>
	<g>
		<path fill="#C0C0C0" d="M82.007,18.002c0,9.959-8.042,18.002-18.002,18.002c-9.959,0-18.002-8.042-18.002-18.002
			C46.003,8.042,54.045,0,64.005,0C73.965,0,82.007,8.042,82.007,18.002z M77.507,11.418c-0.917,0.375-1.917,0.667-2.959,0.792
			c1.083-0.625,1.834-1.625,2.209-2.834c-1,0.583-2.042,1-3.209,1.25c-0.917-1-2.25-1.625-3.708-1.625
			c-2.834,0-5.084,2.292-5.084,5.126c0,0.375,0.042,0.792,0.125,1.167c-4.25-0.208-8.043-2.25-10.585-5.375
			c-0.417,0.792-0.667,1.667-0.667,2.583c0,1.792,0.875,3.334,2.25,4.25c-0.833,0-1.625-0.25-2.292-0.625v0.042
			c0,2.5,1.75,4.542,4.083,5.042c-0.417,0.125-0.875,0.167-1.333,0.167c-0.333,0-0.667-0.042-0.958-0.083
			c0.625,2.042,2.542,3.417,4.751,3.458c-1.75,1.375-3.917,2.333-6.334,2.333c-0.417,0-0.833-0.042-1.208-0.083
			c2.25,1.458,4.959,2.25,7.834,2.25c9.418,0,14.543-7.792,14.543-14.543c0-0.208,0-0.458,0-0.667
			C75.965,13.335,76.798,12.418,77.507,11.418z"/>
	</g>
	<g>
		<path fill="#C0C0C0" d="M82.007,58.007c0,9.959-8.084,18.002-18.002,18.002c-9.959,0-18.002-8.042-18.002-18.002
			c0-9.918,8.042-18.002,18.002-18.002C73.923,40.004,82.007,48.089,82.007,58.007z M65.505,51.797c0-1.25,0.25-2.042,1.833-2.042
			h2.458l0.208-4.25c0,0-1.25-0.25-3.417-0.25c-4.417,0-6.334,2.667-6.334,5.667c0,1.958,0,4.084,0,4.084h-3v4.5h3v11.251h5.25
			V59.507h4.209l0.292-4.459h-4.5V51.797z"/>
	</g>
	<g>
		<path fill="#FFFFFF" d="M37.542,184.012c0.185,0,0.385,0.078,0.602,0.231l19.167,19.167c0.4,0.401,0.4,0.803,0,1.203
			L38.144,223.78c-0.401,0.401-0.803,0.401-1.204,0l-5.833-5.833c-0.401-0.4-0.401-0.803,0-1.204l12.731-12.731L31.106,191.28
			c-0.401-0.401-0.401-0.802,0-1.204l5.833-5.833C37.156,184.09,37.356,184.012,37.542,184.012z"/>
	</g>
	<g>
		<path fill="#FFFFFF" d="M20.07,224.081c-0.185,0-0.386-0.076-0.602-0.231L0.301,204.683c-0.401-0.4-0.401-0.802,0-1.203
			l19.167-19.167c0.4-0.401,0.802-0.401,1.204,0l5.833,5.833c0.4,0.402,0.4,0.803,0,1.204l-12.778,12.731l12.778,12.731
			c0.4,0.401,0.4,0.804,0,1.204l-5.833,5.833C20.456,224.005,20.255,224.081,20.07,224.081z"/>
	</g>
</g>
</svg>
